grf
version=1
nRows=14
nColumns=37
inDegrees=no
endheader
time	ground_force_1_vx	ground_force_1_vy	ground_force_1_vz	ground_force_1_px	ground_force_1_py	ground_force_1_pz	ground_moment_1_mx	ground_moment_1_my	ground_moment_1_mz	ground_force_2_vx	ground_force_2_vy	ground_force_2_vz	ground_force_2_px	ground_force_2_py	ground_force_2_pz	ground_moment_2_mx	ground_moment_2_my	ground_moment_2_mz	ground_force_3_vx	ground_force_3_vy	ground_force_3_vz	ground_force_3_px	ground_force_3_py	ground_force_3_pz	ground_moment_3_mx	ground_moment_3_my	ground_moment_3_mz	ground_force_4_vx	ground_force_4_vy	ground_force_4_vz	ground_force_4_px	ground_force_4_py	ground_force_4_pz	ground_moment_4_mx	ground_moment_4_my	ground_moment_4_mz
      1.59000000	      0.00000000	     -0.00000000	      0.00000000	      0.00000000	      0.00000000	      0.00000000	      0.00000000	      0.00000000	      0.00000000	     16.28210640	     53.74563599	   -399.10275269	   -410.21215053	  -1119.24538135	      0.00000000	      0.00000000	      0.00000000	   2821.96386202	     -4.39251900	    -38.24329338	   -323.56317139	   -352.09535820	   -679.84547177	      0.00000000	      0.00000000	     -0.00000000	  -3436.51606840	      0.00000000	     -0.00000000	      0.00000000	      0.00000000	      0.00000000	      0.00000000	      0.00000000	      0.00000000	      0.00000000
      1.60000000	      0.00000000	     -0.00000000	      0.00000000	      0.00000000	      0.00000000	      0.00000000	      0.00000000	      0.00000000	      0.00000000	     14.67406464	     54.57062149	   -399.19216919	   -407.95873410	  -1118.20569381	      0.00000000	      0.00000000	      0.00000000	   2695.93490745	     -3.83493267	    -36.67377820	   -312.57086182	   -353.27431479	   -680.54751689	      0.00000000	      0.00000000	     -0.00000000	  -3329.33566222	      0.00000000	     -0.00000000	      0.00000000	      0.00000000	      0.00000000	      0.00000000	      0.00000000	      0.00000000	      0.00000000
      1.61000000	      0.00000000	     -0.00000000	      0.00000000	      0.00000000	      0.00000000	      0.00000000	      0.00000000	      0.00000000	      0.00000000	     14.91904831	     54.61230850	   -400.41589355	   -406.71222152	  -1119.63007487	      0.00000000	      0.00000000	      0.00000000	   2549.87375893	     -3.12760026	    -33.51484271	   -299.65298462	   -354.97369381	   -680.39962758	      0.00000000	      0.00000000	     -0.00000000	  -3209.05673662	      0.00000000	     -0.00000000	      0.00000000	      0.00000000	      0.00000000	      0.00000000	      0.00000000	      0.00000000	      0.00000000
      1.62000000	      0.00000000	     -0.00000000	      0.00000000	      0.00000000	      0.00000000	      0.00000000	      0.00000000	      0.00000000	      0.00000000	     14.74084568	     54.30467987	   -395.82485962	   -405.49836370	  -1119.12181901	      0.00000000	      0.00000000	      0.00000000	   2455.05038897	     -1.97428736	    -29.60844213	   -282.62716675	   -359.09510010	   -681.07765439	      0.00000000	      0.00000000	     -0.00000000	  -3149.16837311	      0.00000000	     -0.00000000	      0.00000000	      0.00000000	      0.00000000	      0.00000000	      0.00000000	      0.00000000	      0.00000000
      1.63000000	      0.00000000	     -0.00000000	      0.00000000	      0.00000000	      0.00000000	      0.00000000	      0.00000000	      0.00000000	      0.00000000	     14.98871899	     53.96913910	   -392.38827515	   -404.70397788	  -1119.80240234	      0.00000000	      0.00000000	      0.00000000	   2350.33614540	     -0.11294821	    -25.74331283	   -263.67895508	   -360.82461659	   -681.23708924	      0.00000000	      0.00000000	     -0.00000000	  -2992.31283286	      0.00000000	     -0.00000000	      0.00000000	      0.00000000	      0.00000000	      0.00000000	      0.00000000	      0.00000000	      0.00000000
      1.64000000	      0.00000000	     -0.00000000	      0.00000000	      0.00000000	      0.00000000	      0.00000000	      0.00000000	      0.00000000	      0.00000000	     15.96978569	     52.72008133	   -384.43420410	   -403.52389193	  -1120.38991041	      0.00000000	      0.00000000	      0.00000000	   2380.53190625	     -0.15489619	    -22.23602866	   -244.22880554	   -363.37337472	   -683.13956336	      0.00000000	      0.00000000	     -0.00000000	  -2765.49480449	      0.00000000	     -0.00000000	      0.00000000	      0.00000000	      0.00000000	      0.00000000	      0.00000000	      0.00000000	      0.00000000
      1.65000000	      0.00000000	     -0.00000000	      0.00000000	      0.00000000	      0.00000000	      0.00000000	      0.00000000	      0.00000000	      0.00000000	     15.85696507	     50.44699860	   -371.53884888	   -402.84160717	  -1120.65011883	      0.00000000	      0.00000000	      0.00000000	   2195.57933705	     -1.37668191	    -20.29273593	   -233.31729126	   -365.33277245	   -683.22374088	      0.00000000	      0.00000000	     -0.00000000	  -2798.56101878	      0.00000000	     -0.00000000	      0.00000000	      0.00000000	      0.00000000	      0.00000000	      0.00000000	      0.00000000	      0.00000000
      1.66000000	      0.00000000	     -0.00000000	      0.00000000	      0.00000000	      0.00000000	      0.00000000	      0.00000000	      0.00000000	      0.00000000	     15.14390755	     49.55707169	   -362.62918091	   -401.24451306	  -1120.43733598	      0.00000000	      0.00000000	      0.00000000	   2156.24588824	     -3.63714391	    -19.82864730	   -227.73159790	   -366.85065119	   -683.08678164	      0.00000000	      0.00000000	      0.00000000	  -2621.51022664	      0.00000000	     -0.00000000	      0.00000000	      0.00000000	      0.00000000	      0.00000000	      0.00000000	      0.00000000	      0.00000000
      1.67000000	      0.00000000	     -0.00000000	      0.00000000	      0.00000000	      0.00000000	      0.00000000	      0.00000000	      0.00000000	      0.00000000	     11.10575294	     52.07450485	   -368.63128662	   -397.90753677	  -1122.78019341	      0.00000000	      0.00000000	      0.00000000	   2204.37278397	     -4.30218910	    -18.92249451	   -223.45478821	   -368.36570982	   -684.65400578	      0.00000000	      0.00000000	     -0.00000000	  -2427.60970352	      0.00000000	     -0.00000000	      0.00000000	      0.00000000	      0.00000000	      0.00000000	      0.00000000	      0.00000000	      0.00000000
      1.68000000	      0.00000000	     -0.00000000	      0.00000000	      0.00000000	      0.00000000	      0.00000000	      0.00000000	      0.00000000	      0.00000000	      4.99578857	     54.92664337	   -377.10797119	   -394.80331541	  -1122.99177605	      0.00000000	      0.00000000	      0.00000000	   2083.85418633	     -3.96972811	    -17.68617405	   -218.74284363	   -371.62272069	   -683.57086712	      0.00000000	      0.00000000	      0.00000000	  -2401.09670387	      0.00000000	     -0.00000000	      0.00000000	      0.00000000	      0.00000000	      0.00000000	      0.00000000	      0.00000000	      0.00000000
      1.69000000	      0.00000000	     -0.00000000	      0.00000000	      0.00000000	      0.00000000	      0.00000000	      0.00000000	      0.00000000	      0.00000000	      2.49789429	     55.84008408	   -381.78662109	   -392.39559585	  -1122.63974375	      0.00000000	      0.00000000	      0.00000000	   2192.49537393	     -3.26002696	    -16.69287462	   -214.72824097	   -374.13795742	   -684.21035122	      0.00000000	     -0.00000000	     -0.00000000	  -2089.85704519	      0.00000000	     -0.00000000	      0.00000000	      0.00000000	      0.00000000	      0.00000000	      0.00000000	      0.00000000	      0.00000000
      1.70000000	      0.00000000	     -0.00000000	      0.00000000	      0.00000000	      0.00000000	      0.00000000	      0.00000000	      0.00000000	      0.00000000	      3.09916162	     54.30257034	   -381.52212524	   -390.82502827	  -1123.15932691	      0.00000000	      0.00000000	      0.00000000	   2077.68661988	     -1.99610065	    -16.18489629	   -213.41787720	   -377.60632289	   -687.05778686	      0.00000000	      0.00000000	     -0.00000000	  -2123.27143921	      0.00000000	     -0.00000000	      0.00000000	      0.00000000	      0.00000000	      0.00000000	      0.00000000	      0.00000000	      0.00000000
      1.71000000	      0.00000000	     -0.00000000	      0.00000000	      0.00000000	      0.00000000	      0.00000000	      0.00000000	      0.00000000	      0.00000000	      5.95423841	     53.63365936	   -382.76248169	   -388.78475368	  -1124.39939235	      0.00000000	      0.00000000	      0.00000000	   2103.33283718	     -0.97626639	    -16.38389388	   -214.99053955	   -379.47909949	   -688.52905714	      0.00000000	      0.00000000	     -0.00000000	  -2105.02773719	      0.00000000	     -0.00000000	      0.00000000	      0.00000000	      0.00000000	      0.00000000	      0.00000000	      0.00000000	      0.00000000
      1.72000000	      0.00000000	     -0.00000000	      0.00000000	      0.00000000	      0.00000000	      0.00000000	      0.00000000	      0.00000000	      0.00000000	      7.04763031	     54.25738525	   -387.08126831	   -387.43025316	  -1124.08538122	      0.00000000	      0.00000000	      0.00000000	   2210.94239079	      0.19942442	    -15.67744448	   -215.16400146	   -382.28939465	   -688.84334875	      0.00000000	      0.00000000	     -0.00000000	  -2024.06382571	      0.00000000	     -0.00000000	      0.00000000	      0.00000000	      0.00000000	      0.00000000	      0.00000000	      0.00000000	      0.00000000
